<?xml version="1.0" encoding="utf-8"?>
<!-- Generator: Adobe Illustrator 19.0.0, SVG Export Plug-In . SVG Version: 6.00 Build 0)  -->
<svg version="1.1" id="Capa_1" xmlns="http://www.w3.org/2000/svg" xmlns:xlink="http://www.w3.org/1999/xlink" x="0px" y="0px"
	 viewBox="-444.2 984 34 34" enable-background="new -444.2 984 34 34" xml:space="preserve">
<g>
	<g>
		<path fill="#B3A57D" d="M-422.5,1001c0,2.6-2.1,4.7-4.7,4.7s-4.7-2.1-4.7-4.7c0-0.6,0.1-1.2,0.3-1.7h-2.4v7c0,0.9,0.7,1.6,1.6,1.6
			h10.4c0.9,0,1.6-0.7,1.6-1.6v-7h-2.5C-422.6,999.8-422.5,1000.4-422.5,1001z"/>
		<polygon fill="#B3A57D" points="-420.6,997.3 -420.6,994.8 -420.6,994.5 -421,994.5 -423.5,994.5 -423.5,997.4 		"/>
		<path fill="#B3A57D" d="M-427.2,1004c1.7,0,3-1.3,3-3c0-0.7-0.2-1.3-0.6-1.7c-0.5-0.8-1.4-1.2-2.4-1.2s-1.9,0.5-2.4,1.2
			c-0.4,0.5-0.6,1.1-0.6,1.7C-430.2,1002.7-428.8,1004-427.2,1004z"/>
		<path fill="#B3A57D" d="M-427.2,984c-9.4,0-17,7.6-17,17s7.6,17,17,17s17-7.6,17-17S-417.8,984-427.2,984z M-418.7,999.3v7
			c0,1.8-1.5,3.3-3.3,3.3h-10.4c-1.8,0-3.3-1.5-3.3-3.3v-7v-3.5c0-1.8,1.5-3.3,3.3-3.3h10.4c1.8,0,3.3,1.5,3.3,3.3V999.3z"/>
	</g>
</g>
</svg>
