<?xml version="1.0" encoding="utf-8"?>
<!-- Generator: Adobe Illustrator 19.0.0, SVG Export Plug-In . SVG Version: 6.00 Build 0)  -->
<svg version="1.1" id="Capa_1" xmlns="http://www.w3.org/2000/svg" xmlns:xlink="http://www.w3.org/1999/xlink" x="0px" y="0px"
	 viewBox="-536 984 34 34" enable-background="new -536 984 34 34" xml:space="preserve">
<path fill="#B3A57D" d="M-519,984c-9.4,0-17,7.6-17,17s7.6,17,17,17c9.4,0,17-7.6,17-17S-509.6,984-519,984z M-510.3,1007.7
	c-0.1,0-0.2,0-0.2,0c-1.1,0-2.2,0-3.3,0c-0.6,0-1-0.3-1.4-0.7c-0.4-0.4-0.8-0.9-1.2-1.3c-0.2-0.2-0.4-0.4-0.7-0.6
	c-0.4-0.2-0.8-0.1-1,0.3c-0.2,0.4-0.2,0.9-0.3,1.4c-0.1,0.6-0.2,0.8-0.9,0.9c-1.2,0-2.4,0-3.5-0.4c-1.4-0.6-2.5-1.6-3.4-2.8
	c-1.7-2.2-3-4.6-4.1-7.1c-0.2-0.5,0-0.8,0.5-0.8c0.9,0,1.8,0,2.6,0c0.7,0,0.8,0.1,1.1,0.7c0.6,1.1,1.2,2.2,1.8,3.3
	c0.2,0.4,0.5,0.7,0.8,0.9c0.4,0.3,0.7,0.2,0.9-0.2c0.3-1.2,0.4-2.3,0.1-3.5c-0.1-0.5-0.4-0.8-1-0.9c-0.1,0-0.1-0.1-0.2-0.1
	c0.2-0.1,0.3-0.3,0.5-0.3c1.4-0.6,2.8-0.6,4.2-0.2c0.5,0.1,0.6,0.4,0.6,0.9c0,1.1-0.1,2.2-0.1,3.4c0,0.3,0,0.6,0.1,0.9
	c0.1,0.4,0.5,0.5,0.8,0.2c0.3-0.2,0.5-0.5,0.8-0.8c0.8-1.1,1.4-2.3,1.9-3.5c0.2-0.6,0.4-0.7,1-0.7c1.1,0,2.1,0,3.2,0
	c0.6,0,0.9,0.3,0.6,0.9c-0.2,0.6-0.5,1.1-0.9,1.7c-0.4,0.7-1,1.3-1.4,2c-0.2,0.2-0.3,0.4-0.5,0.6c-0.7,0.9-0.6,1.2,0.2,2.1
	c0.8,0.8,1.5,1.6,2.2,2.4c0.2,0.2,0.3,0.5,0.4,0.8C-509.7,1007.4-509.8,1007.6-510.3,1007.7z"/>
</svg>
