<svg xmlns="http://www.w3.org/2000/svg" viewBox="-536 984 34 34"><path fill="#B3A57D" d="M-519 984c-9.4 0-17 7.6-17 17s7.6 17 17 17 17-7.6 17-17-7.6-17-17-17zm8.7 23.7h-3.5c-.6 0-1-.3-1.4-.7-.4-.4-.8-.9-1.2-1.3-.2-.2-.4-.4-.7-.6-.4-.2-.8-.1-1 .3-.2.4-.2.9-.3 1.4-.1.6-.2.8-.9.9-1.2 0-2.4 0-3.5-.4-1.4-.6-2.5-1.6-3.4-2.8-1.7-2.2-3-4.6-4.1-7.1-.2-.5 0-.8.5-.8h2.6c.7 0 .8.1 1.1.7l1.8 3.3c.2.4.5.7.8.9.4.3.7.2.9-.2.3-1.2.4-2.3.1-3.5-.1-.5-.4-.8-1-.9-.1 0-.1-.1-.2-.1.2-.1.3-.3.5-.3 1.4-.6 2.8-.6 4.2-.2.5.1.6.4.6.9 0 1.1-.1 2.2-.1 3.4 0 .3 0 .6.1.9.1.4.5.5.8.2.3-.2.5-.5.8-.8.8-1.1 1.4-2.3 1.9-3.5.2-.6.4-.7 1-.7h3.2c.6 0 .9.3.6.9-.2.6-.5 1.1-.9 1.7-.4.7-1 1.3-1.4 2-.2.2-.3.4-.5.6-.7.9-.6 1.2.2 2.1.8.8 1.5 1.6 2.2 2.4.2.2.3.5.4.8.4.2.3.4-.2.5z"/></svg>