<svg id="Layer_1" xmlns="http://www.w3.org/2000/svg" viewBox="0 0 49.9 51.5" width="49.9" height="51.5"><style>.st0{fill:#c2bdb4}</style><path class="st0" d="M49.9 51.5H0l8.8-34h32.3l8.8 34zm-46-3H46l-7.2-28H11.1l-7.2 28z"/><circle class="st0" cx="18.9" cy="29" r="2"/><circle class="st0" cx="30.9" cy="29" r="2"/><path class="st0" d="M19.9 29h-2V8.1c-.1-.5-.3-3.7 1.6-5.9C20.8.7 22.6 0 24.9 0v2c-1.8 0-3.1.5-3.9 1.5-1.5 1.7-1.1 4.4-1.1 4.4V29zM32 29h-2V7.9s.3-2.7-1.1-4.4c-.9-1-2.2-1.5-4-1.5V0c2.4 0 4.2.7 5.4 2.1 2 2.3 1.7 5.4 1.7 6V29z"/></svg>