<?xml version="1.0" encoding="utf-8"?>
<!-- Generator: Adobe Illustrator 19.0.0, SVG Export Plug-In . SVG Version: 6.00 Build 0)  -->
<svg version="1.1" id="Layer_1" xmlns="http://www.w3.org/2000/svg" xmlns:xlink="http://www.w3.org/1999/xlink" x="0px" y="0px"
	 viewBox="0 0 49.9 51.5" style="enable-background:new 0 0 49.9 51.5;" xml:space="preserve">
<style type="text/css">
	.st0{fill:#C2BDB4;}
</style>
<path class="st0" d="M49.9,51.5H0l8.8-34h32.3L49.9,51.5z M3.9,48.5H46l-7.2-28H11.1L3.9,48.5z"/>
<circle class="st0" cx="18.9" cy="29" r="2"/>
<circle class="st0" cx="30.9" cy="29" r="2"/>
<path class="st0" d="M19.9,29h-2V8.1c-0.1-0.5-0.3-3.7,1.6-5.9C20.8,0.7,22.6,0,24.9,0v2c-1.8,0-3.1,0.5-3.9,1.5
	c-1.5,1.7-1.1,4.4-1.1,4.4l0,0.1V29z"/>
<path class="st0" d="M32,29h-2l0-21.1c0,0,0.3-2.7-1.1-4.4C28,2.5,26.7,2,24.9,2V0c2.4,0,4.2,0.7,5.4,2.1C32.3,4.4,32,7.5,32,8.1V29
	z"/>
</svg>
