<svg xmlns="http://www.w3.org/2000/svg" viewBox="-444.2 984 34 34"><g fill="#B3A57D"><path d="M-422.5 1001c0 2.6-2.1 4.7-4.7 4.7s-4.7-2.1-4.7-4.7c0-.6.1-1.2.3-1.7h-2.4v7c0 .9.7 1.6 1.6 1.6h10.4c.9 0 1.6-.7 1.6-1.6v-7h-2.5c.3.5.4 1.1.4 1.7zM-420.6 997.3v-2.8h-2.9v2.9z"/><path d="M-427.2 1004c1.7 0 3-1.3 3-3 0-.7-.2-1.3-.6-1.7-.5-.8-1.4-1.2-2.4-1.2s-1.9.5-2.4 1.2c-.4.5-.6 1.1-.6 1.7 0 1.7 1.4 3 3 3z"/><path d="M-427.2 984c-9.4 0-17 7.6-17 17s7.6 17 17 17 17-7.6 17-17-7.6-17-17-17zm8.5 15.3v7c0 1.8-1.5 3.3-3.3 3.3h-10.4c-1.8 0-3.3-1.5-3.3-3.3v-10.5c0-1.8 1.5-3.3 3.3-3.3h10.4c1.8 0 3.3 1.5 3.3 3.3v3.5z"/></g></svg>