<svg xmlns="http://www.w3.org/2000/svg" preserveAspectRatio="xMidYMid" width="22.97" height="23" viewBox="0 0 22.97 23"><defs><style>.cls-1{fill:#c2bdb4;fill-rule:evenodd}</style></defs><path d="M16.613 18.7c-1.34.577-2.538 1.258-3.822 1.618C7.19 21.886 1.603 18.38.275 12.546-.994 6.98 2.656 1.266 8.262.216c4.28-.8 7.84.632 10.326 4.252 2.447 3.566 2.477 7.377.37 11.164-.292.523-.33.828.132 1.267 1.143 1.086 2.24 2.225 3.33 3.37.707.743.734 1.638.127 2.265-.62.642-1.48.623-2.225-.11-1.163-1.144-2.295-2.32-3.442-3.482-.126-.128-.265-.24-.267-.243zm-6.353-.44c4.437-.077 7.864-3.667 7.775-8.15-.083-4.272-3.712-7.742-8.015-7.662-4.147.077-7.622 3.718-7.583 7.946.04 4.33 3.63 7.94 7.823 7.867z" class="cls-1"/></svg>