<?xml version="1.0" encoding="utf-8"?>
<!-- Generator: Adobe Illustrator 19.0.0, SVG Export Plug-In . SVG Version: 6.00 Build 0)  -->
<svg version="1.1" id="Capa_1" xmlns="http://www.w3.org/2000/svg" xmlns:xlink="http://www.w3.org/1999/xlink" x="0px" y="0px"
	 viewBox="0 0 125.8 34" style="enable-background:new 0 0 125.8 34;" xml:space="preserve">
<style type="text/css">
	.st0{fill:#B3A57D;}
</style>
<g>
	<path class="st0" d="M62.8,0c-9.4,0-17,7.6-17,17c0,9.4,7.6,17,17,17c9.4,0,17-7.6,17-17C79.8,7.6,72.2,0,62.8,0z M66.6,14.1
		l-0.2,2.5h-2.6v8.8h-3.3v-8.8h-1.8v-2.5h1.8v-1.7c0-0.8,0-1.9,0.6-2.6c0.6-0.8,1.4-1.3,2.7-1.3c2.2,0,3.2,0.3,3.2,0.3l-0.4,2.6
		c0,0-0.7-0.2-1.4-0.2c-0.7,0-1.3,0.2-1.3,0.9v2H66.6z"/>
</g>
<g>
	<g>
		<path class="st0" d="M113.5,17c0,2.6-2.1,4.7-4.7,4.7c-2.6,0-4.7-2.1-4.7-4.7c0-0.6,0.1-1.2,0.3-1.7H102v7c0,0.9,0.7,1.6,1.6,1.6
			H114c0.9,0,1.6-0.7,1.6-1.6v-7h-2.5C113.4,15.8,113.5,16.4,113.5,17z"/>
		<polygon class="st0" points="115.4,13.3 115.4,10.8 115.4,10.5 115,10.5 112.5,10.5 112.5,13.4 		"/>
		<path class="st0" d="M108.8,20c1.7,0,3-1.3,3-3c0-0.7-0.2-1.3-0.6-1.7c-0.5-0.8-1.4-1.2-2.4-1.2c-1,0-1.9,0.5-2.4,1.2
			c-0.4,0.5-0.6,1.1-0.6,1.7C105.8,18.7,107.2,20,108.8,20z"/>
		<path class="st0" d="M108.8,0c-9.4,0-17,7.6-17,17c0,9.4,7.6,17,17,17c9.4,0,17-7.6,17-17C125.8,7.6,118.2,0,108.8,0z M117.3,15.3
			v7c0,1.8-1.5,3.3-3.3,3.3h-10.4c-1.8,0-3.3-1.5-3.3-3.3v-7v-3.5c0-1.8,1.5-3.3,3.3-3.3H114c1.8,0,3.3,1.5,3.3,3.3V15.3z"/>
	</g>
</g>
<path class="st0" d="M17,0C7.6,0,0,7.6,0,17c0,9.4,7.6,17,17,17c9.4,0,17-7.6,17-17C34,7.6,26.4,0,17,0z M25.7,23.7
	c-0.1,0-0.2,0-0.2,0c-1.1,0-2.2,0-3.3,0c-0.6,0-1-0.3-1.4-0.7c-0.4-0.4-0.8-0.9-1.2-1.3c-0.2-0.2-0.4-0.4-0.7-0.6
	c-0.4-0.2-0.8-0.1-1,0.3c-0.2,0.4-0.2,0.9-0.3,1.4c-0.1,0.6-0.2,0.8-0.9,0.9c-1.2,0-2.4,0-3.5-0.4c-1.4-0.6-2.5-1.6-3.4-2.8
	c-1.7-2.2-3-4.6-4.1-7.1c-0.2-0.5,0-0.8,0.5-0.8c0.9,0,1.8,0,2.6,0c0.7,0,0.8,0.1,1.1,0.7c0.6,1.1,1.2,2.2,1.8,3.3
	c0.2,0.4,0.5,0.7,0.8,0.9c0.4,0.3,0.7,0.2,0.9-0.2c0.3-1.2,0.4-2.3,0.1-3.5c-0.1-0.5-0.4-0.8-1-0.9c-0.1,0-0.1-0.1-0.2-0.1
	c0.2-0.1,0.3-0.3,0.5-0.3c1.4-0.6,2.8-0.6,4.2-0.2c0.5,0.1,0.6,0.4,0.6,0.9c0,1.1-0.1,2.2-0.1,3.4c0,0.3,0,0.6,0.1,0.9
	c0.1,0.4,0.5,0.5,0.8,0.2c0.3-0.2,0.5-0.5,0.8-0.8c0.8-1.1,1.4-2.3,1.9-3.5c0.2-0.6,0.4-0.7,1-0.7c1.1,0,2.1,0,3.2,0
	c0.6,0,0.9,0.3,0.6,0.9c-0.2,0.6-0.5,1.1-0.9,1.7c-0.4,0.7-1,1.3-1.4,2c-0.2,0.2-0.3,0.4-0.5,0.6c-0.7,0.9-0.6,1.2,0.2,2.1
	c0.8,0.8,1.5,1.6,2.2,2.4c0.2,0.2,0.3,0.5,0.4,0.8C26.3,23.4,26.2,23.6,25.7,23.7z"/>
</svg>
