<?xml version="1.0" encoding="utf-8"?>
<!-- Generator: Adobe Illustrator 19.0.0, SVG Export Plug-In . SVG Version: 6.00 Build 0)  -->
<svg version="1.1" id="Layer_1" xmlns="http://www.w3.org/2000/svg" xmlns:xlink="http://www.w3.org/1999/xlink" x="0px" y="0px"
	 viewBox="0 0 31.3 27.9" style="enable-background:new 0 0 31.3 27.9;" xml:space="preserve">
<style type="text/css">
	.st0{fill:#BEBEBE;}
</style>
<path class="st0" d="M2.7,27.9c-0.6,0-1.5-0.1-2.1-0.7C0,26.5,0,25.6,0,25c0.2-3.1,1.4-4.7,4.3-5.4c0.4-0.1,0.9-0.2,1.4-0.3
	c0.6-0.1,1.2-0.3,1.7-0.4c1.7-0.5,2.3-1,2.4-1.2c0.2-0.5-0.3-1.6-0.9-2.8c0,0,0,0-0.1-0.1c-0.2-0.2-0.5-0.5-0.5-1
	c0-0.4-0.1-0.8-0.1-1.3c-0.3-3.2-0.6-6.6,1-9.8c1-1.9,2.9-2.8,5.6-2.5c0.4,0.1,0.9,0.1,1.3,0.1c2.3,0.2,5.1,0.4,6.1,3.4
	c1.2,3.6,1.5,6.7,0.8,9.5c-0.2,1-0.7,1.9-1.1,2.7c-0.1,0.3-0.3,0.6-0.4,0.8c-0.1,0.3-0.2,0.6-0.1,0.9c0.1,0.2,0.4,0.4,0.8,0.6
	c0.7,0.3,1.4,0.4,2.2,0.6c0.9,0.2,1.8,0.5,2.7,0.8c1.2,0.5,2.7,1.2,3.4,2.4c1,1.8,1.2,3.2,0.6,4.2c-0.6,1.1-1.9,1.6-4,1.6l-11.4,0
	c-1.2,0-2.4,0-3.6,0c-3,0-6.1,0-9.2,0C2.8,27.9,2.7,27.9,2.7,27.9z M2.1,25.8c0,0,0.1,0.1,0.7,0.1c3.1-0.1,6.2,0,9.2,0
	c1.2,0,2.4,0,3.6,0l11.4,0c1.8,0,2.2-0.4,2.2-0.6s0.3-0.7-0.6-2.2c-0.5-0.8-1.9-1.4-2.4-1.6c-0.8-0.3-1.6-0.5-2.4-0.7
	c-0.8-0.2-1.6-0.4-2.4-0.7c-1-0.4-1.6-1-1.9-1.7c-0.2-0.5-0.3-1.4,0.2-2.5c0.1-0.3,0.3-0.6,0.5-0.9c0.4-0.8,0.8-1.5,1-2.3
	c0.6-2.4,0.3-5.1-0.8-8.4c-0.6-1.7-2-1.9-4.4-2.1c-0.5,0-1-0.1-1.4-0.1c-1.8-0.2-2.9,0.2-3.5,1.4c-1.3,2.7-1.1,5.7-0.8,8.8
	c0,0.4,0.1,0.7,0.1,1.1c0,0,0,0,0,0c0.1,0.1,0.3,0.3,0.5,0.6c0.8,1.8,1.5,3.2,0.9,4.5c-0.5,1-1.5,1.7-3.6,2.3
	c-0.6,0.2-1.2,0.3-1.8,0.5c-0.4,0.1-0.9,0.2-1.3,0.3C2.8,22,2.1,22.8,2,25.1C2,25.6,2.1,25.8,2.1,25.8L2.1,25.8z"/>
</svg>
